<svg width="24" height="24" viewBox="0 0 24 24" fill="none" xmlns="http://www.w3.org/2000/svg">
<path d="M12 11.4444C12.7911 11.4444 13.5645 11.1968 14.2223 10.7329C14.8801 10.2689 15.3928 9.60951 15.6955 8.838C15.9983 8.06649 16.0775 7.21754 15.9231 6.39851C15.7688 5.57948 15.3878 4.82715 14.8284 4.23666C14.269 3.64617 13.5563 3.24405 12.7804 3.08113C12.0044 2.91822 11.2002 3.00183 10.4693 3.3214C9.73836 3.64097 9.11365 4.18214 8.67412 4.87648C8.2346 5.57082 8 6.38715 8 7.22222C8 8.34203 8.42143 9.41597 9.17157 10.2078C9.92172 10.9996 10.9391 11.4444 12 11.4444ZM18 22C18.2652 22 18.5196 21.8888 18.7071 21.6908C18.8946 21.4929 19 21.2244 19 20.9444C19 18.9848 18.2625 17.1054 16.9497 15.7197C15.637 14.334 13.8565 13.5556 12 13.5556C10.1435 13.5556 8.36301 14.334 7.05025 15.7197C5.7375 17.1054 5 18.9848 5 20.9444C5 21.2244 5.10536 21.4929 5.29289 21.6908C5.48043 21.8888 5.73478 22 6 22H18Z" fill="black"/>
</svg>
